# xmcd CD database file
#
# Track frame offsets:
#	150
#	13672
#	28965
#	43015
#	56240
#	69457
#	83402
#	99682
#	113397
#	128127
#	143825
#	157970
#	172400
#	186657
#	200582
#	214572
#	227952
#	242165
#	256172
#	269792
#	284017
#	299932
#
# Disc length: 4177 seconds
#
# Revision: 2
# Processed by: cddbd v1.4PL0 Copyright (c) Steve Scherf et al.
# Submitted via: CDex 1.50beta10
#
DISCID=61104f16
DTITLE=Ethel Waters - 1929-1939
DYEAR=1939
DGENRE=Jazz
TTITLE0=Birmingham Bertha
TTITLE1=Am I Blue
TTITLE2=True Blue Lou
TTITLE3=Do I Know What I'm Doing
TTITLE4=Shoo Shoo Boogie Boo
TTITLE5=Travlin' All Alone
TTITLE6=Porgy
TTITLE7=What Did I Do To Be So Black and Blue
TTITLE8=Please Don't Talk About Me When I'm Gone
TTITLE9=You Can't Stop Me From Loving You
TTITLE10=I Can't Give You Anything But Love
TTITLE11=Porgy -2
TTITLE12=Stormy Wheater
TTITLE13=Heat Wave
TTITLE14=I Just Couldn't Take It Baby
TTITLE15=A Hundred Years From Today
TTITLE16=COme up and see me sometime
TTITLE17=I ain't gonna sin no more
TTITLE18=Trade Mark
TTITLE19=Franky and Johnny
TTITLE20=Georgia on my mind
TTITLE21=Old Man Harlem
EXTD=YEAR: 1939
EXTT0=
EXTT1=
EXTT2=
EXTT3=
EXTT4=
EXTT5=
EXTT6=
EXTT7=
EXTT8=
EXTT9=
EXTT10=
EXTT11=
EXTT12=
EXTT13=
EXTT14=
EXTT15=
EXTT16=
EXTT17=
EXTT18=
EXTT19=
EXTT20=
EXTT21=
PLAYORDER=
